<?xml version="1.0" encoding="utf-8"?>
<!-- Generator: Adobe Illustrator 21.1.0, SVG Export Plug-In . SVG Version: 6.00 Build 0)  -->
<svg version="1.1" id="Layer_1" xmlns="http://www.w3.org/2000/svg" xmlns:xlink="http://www.w3.org/1999/xlink" x="0px" y="0px"
	 viewBox="0 0 138 75" style="enable-background:new 0 0 138 75;" xml:space="preserve">
<style type="text/css">
	.st0{fill:none;stroke:#00BEC0;stroke-width:4.1163;stroke-linecap:round;stroke-miterlimit:10;}
	.st1{fill:#4D4D4D;}
</style>
<path class="st0" d="M67.2,53.5C61.4,64.4,50,71.8,36.9,71.8c-18.9,0-34.3-15.4-34.3-34.3S17.9,3.2,36.9,3.2
	c14.8,0,27.5,9.4,32.3,22.6"/>
<g>
	<path class="st1" d="M49,32.9h-8.2v4.4h7.5c0.6,0,1,0.1,1.2,0.4c0.3,0.2,0.4,0.6,0.4,1c0,0.4-0.1,0.7-0.4,1
		c-0.3,0.3-0.7,0.4-1.2,0.4h-7.5v5.1h8.4c0.6,0,1,0.1,1.3,0.4s0.4,0.6,0.4,1.1c0,0.4-0.1,0.8-0.4,1S49.9,48,49.3,48h-9.8
		c-0.8,0-1.4-0.2-1.7-0.5c-0.3-0.3-0.5-0.9-0.5-1.7V32.3c0-0.5,0.1-0.9,0.2-1.3c0.2-0.3,0.4-0.6,0.7-0.7c0.3-0.2,0.8-0.2,1.3-0.2H49
		c0.6,0,1,0.1,1.3,0.4c0.3,0.3,0.4,0.6,0.4,1c0,0.4-0.1,0.8-0.4,1C50,32.8,49.6,32.9,49,32.9z"/>
	<path class="st1" d="M56.7,36.6V37c0.6-0.8,1.3-1.3,2-1.7c0.7-0.4,1.4-0.5,2.3-0.5c1,0,2,0.3,2.8,0.8s1.5,1.3,2,2.3
		c0.5,1,0.8,2.2,0.8,3.6c0,1-0.1,2-0.4,2.8c-0.3,0.9-0.7,1.6-1.2,2.2c-0.5,0.6-1.1,1-1.8,1.3c-0.7,0.3-1.4,0.5-2.2,0.5
		c-1,0-1.8-0.2-2.4-0.6s-1.3-0.9-1.8-1.7v5c0,1.5-0.5,2.2-1.6,2.2c-0.6,0-1-0.2-1.2-0.6c-0.2-0.4-0.3-0.9-0.3-1.7V36.7
		c0-0.6,0.1-1.1,0.4-1.4c0.3-0.3,0.7-0.5,1.1-0.5c0.5,0,0.9,0.2,1.2,0.5S56.7,36,56.7,36.6z M63.3,41.5c0-0.9-0.1-1.6-0.4-2.3
		c-0.3-0.6-0.6-1.1-1.1-1.5c-0.5-0.3-1-0.5-1.6-0.5c-0.9,0-1.7,0.4-2.3,1.1c-0.6,0.7-0.9,1.8-0.9,3.2c0,1.3,0.3,2.4,0.9,3.1
		c0.6,0.7,1.4,1.1,2.3,1.1c0.6,0,1.1-0.2,1.5-0.5c0.5-0.3,0.9-0.8,1.1-1.4C63.1,43.2,63.3,42.4,63.3,41.5z"/>
	<path class="st1" d="M71,33.2c-0.5,0-0.9-0.1-1.2-0.4c-0.3-0.3-0.5-0.7-0.5-1.2c0-0.5,0.2-0.9,0.5-1.2S70.5,30,71,30
		c0.4,0,0.8,0.1,1.1,0.4c0.3,0.3,0.5,0.7,0.5,1.2c0,0.5-0.2,0.9-0.5,1.2C71.8,33.1,71.4,33.2,71,33.2z M72.6,36.7v9.6
		c0,0.7-0.2,1.2-0.5,1.5s-0.7,0.5-1.2,0.5c-0.5,0-0.9-0.2-1.2-0.5c-0.3-0.3-0.5-0.8-0.5-1.5v-9.5c0-0.7,0.2-1.2,0.5-1.5
		c0.3-0.3,0.7-0.5,1.2-0.5c0.5,0,0.9,0.2,1.2,0.5S72.6,36.1,72.6,36.7z"/>
	<path class="st1" d="M79.1,36.6V37c0.6-0.8,1.3-1.3,2-1.7c0.7-0.4,1.4-0.5,2.3-0.5c1,0,2,0.3,2.8,0.8c0.9,0.5,1.5,1.3,2,2.3
		c0.5,1,0.7,2.2,0.7,3.6c0,1-0.1,2-0.4,2.8c-0.3,0.9-0.7,1.6-1.2,2.2c-0.5,0.6-1.1,1-1.8,1.3c-0.7,0.3-1.4,0.5-2.2,0.5
		c-1,0-1.8-0.2-2.4-0.6c-0.6-0.4-1.3-0.9-1.8-1.7v5c0,1.5-0.5,2.2-1.6,2.2c-0.6,0-1-0.2-1.2-0.6C76.1,52.3,76,51.8,76,51V36.7
		c0-0.6,0.1-1.1,0.4-1.4c0.3-0.3,0.7-0.5,1.1-0.5c0.5,0,0.9,0.2,1.2,0.5C79,35.6,79.1,36,79.1,36.6z M85.7,41.5
		c0-0.9-0.1-1.6-0.4-2.3c-0.3-0.6-0.6-1.1-1.1-1.5c-0.5-0.3-1-0.5-1.6-0.5c-0.9,0-1.7,0.4-2.3,1.1c-0.6,0.7-0.9,1.8-0.9,3.2
		c0,1.3,0.3,2.4,0.9,3.1c0.6,0.7,1.4,1.1,2.3,1.1c0.6,0,1.1-0.2,1.5-0.5c0.5-0.3,0.9-0.8,1.1-1.4C85.5,43.2,85.7,42.4,85.7,41.5z"/>
	<path class="st1" d="M93.4,33.2c-0.5,0-0.9-0.1-1.2-0.4c-0.3-0.3-0.5-0.7-0.5-1.2c0-0.5,0.2-0.9,0.5-1.2s0.7-0.5,1.2-0.5
		c0.4,0,0.8,0.1,1.1,0.4c0.3,0.3,0.5,0.7,0.5,1.2c0,0.5-0.2,0.9-0.5,1.2C94.2,33.1,93.8,33.2,93.4,33.2z M95,36.7v9.6
		c0,0.7-0.2,1.2-0.5,1.5c-0.3,0.3-0.7,0.5-1.2,0.5c-0.5,0-0.9-0.2-1.2-0.5c-0.3-0.3-0.5-0.8-0.5-1.5v-9.5c0-0.7,0.2-1.2,0.5-1.5
		c0.3-0.3,0.7-0.5,1.2-0.5c0.5,0,0.9,0.2,1.2,0.5C94.8,35.6,95,36.1,95,36.7z"/>
	<path class="st1" d="M107.5,38.6l-6.1,6.8h6.5c0.5,0,0.9,0.1,1.2,0.4c0.3,0.2,0.4,0.6,0.4,1c0,0.4-0.1,0.7-0.4,0.9
		c-0.3,0.2-0.7,0.4-1.2,0.4h-9c-0.6,0-1.1-0.1-1.4-0.4c-0.3-0.3-0.5-0.7-0.5-1.1c0-0.3,0.1-0.6,0.3-0.9c0.2-0.3,0.7-0.8,1.4-1.6
		c0.7-0.8,1.4-1.6,2-2.2c0.6-0.7,1.2-1.3,1.7-1.8c0.5-0.6,0.9-1.1,1.3-1.5c0.3-0.4,0.6-0.7,0.8-1h-5c-0.7,0-1.2-0.1-1.5-0.2
		c-0.4-0.1-0.5-0.4-0.5-1c0-0.4,0.1-0.7,0.4-0.9c0.3-0.2,0.6-0.3,1.1-0.3h7.7c0.7,0,1.3,0.1,1.6,0.3c0.4,0.2,0.6,0.6,0.6,1.1
		c0,0.2,0,0.4-0.1,0.6c-0.1,0.2-0.2,0.3-0.2,0.5c-0.1,0.1-0.2,0.3-0.4,0.4C107.9,38.1,107.7,38.3,107.5,38.6z"/>
	<path class="st1" d="M120.5,38.6l-6.1,6.8h6.5c0.5,0,0.9,0.1,1.2,0.4c0.3,0.2,0.4,0.6,0.4,1c0,0.4-0.1,0.7-0.4,0.9
		c-0.3,0.2-0.7,0.4-1.2,0.4h-9c-0.6,0-1.1-0.1-1.4-0.4c-0.3-0.3-0.5-0.7-0.5-1.1c0-0.3,0.1-0.6,0.3-0.9c0.2-0.3,0.7-0.8,1.4-1.6
		c0.7-0.8,1.4-1.6,2-2.2c0.6-0.7,1.2-1.3,1.7-1.8c0.5-0.6,0.9-1.1,1.3-1.5c0.3-0.4,0.6-0.7,0.8-1h-5c-0.7,0-1.2-0.1-1.5-0.2
		c-0.4-0.1-0.5-0.4-0.5-1c0-0.4,0.1-0.7,0.4-0.9c0.3-0.2,0.6-0.3,1.1-0.3h7.7c0.7,0,1.3,0.1,1.6,0.3c0.4,0.2,0.6,0.6,0.6,1.1
		c0,0.2,0,0.4-0.1,0.6c-0.1,0.2-0.2,0.3-0.2,0.5c-0.1,0.1-0.2,0.3-0.4,0.4C120.9,38.1,120.8,38.3,120.5,38.6z"/>
	<path class="st1" d="M132.9,46.4c-0.8,0.6-1.6,1.1-2.3,1.4c-0.8,0.3-1.6,0.5-2.5,0.5c-0.9,0-1.6-0.2-2.3-0.5
		c-0.6-0.3-1.1-0.8-1.5-1.4s-0.5-1.2-0.5-1.9c0-0.9,0.3-1.7,0.9-2.3c0.6-0.6,1.4-1.1,2.4-1.3c0.2,0,0.7-0.2,1.6-0.3
		c0.8-0.2,1.6-0.3,2.2-0.5c0.6-0.1,1.2-0.3,1.9-0.5c0-0.9-0.2-1.5-0.5-1.9c-0.3-0.4-1-0.6-1.9-0.6c-0.8,0-1.5,0.1-1.9,0.4
		c-0.4,0.2-0.8,0.6-1.1,1.1c-0.3,0.5-0.5,0.8-0.6,0.9c-0.1,0.2-0.4,0.2-0.8,0.2c-0.4,0-0.7-0.1-1-0.4s-0.4-0.5-0.4-0.9
		c0-0.6,0.2-1.2,0.6-1.7c0.4-0.6,1.1-1,1.9-1.4c0.9-0.4,2-0.5,3.3-0.5c1.5,0,2.6,0.2,3.5,0.5c0.8,0.3,1.4,0.9,1.8,1.6
		c0.3,0.7,0.5,1.7,0.5,3c0,0.8,0,1.4,0,2c0,0.5,0,1.2,0,1.8c0,0.6,0.1,1.3,0.3,2c0.2,0.7,0.3,1.1,0.3,1.3c0,0.3-0.2,0.7-0.5,0.9
		c-0.3,0.3-0.7,0.4-1.1,0.4c-0.3,0-0.7-0.2-1-0.5C133.6,47.5,133.3,47,132.9,46.4z M132.7,41.6c-0.5,0.2-1.2,0.4-2.1,0.6
		c-0.9,0.2-1.6,0.3-1.9,0.4c-0.4,0.1-0.7,0.3-1,0.5c-0.3,0.3-0.5,0.7-0.5,1.1c0,0.5,0.2,0.9,0.6,1.3c0.4,0.4,0.9,0.5,1.5,0.5
		c0.7,0,1.3-0.1,1.8-0.4c0.6-0.3,1-0.7,1.2-1.1c0.3-0.5,0.5-1.3,0.5-2.5V41.6z"/>
</g>
</svg>
